<svg width="24" height="25" viewBox="0 0 24 25" fill="none" xmlns="http://www.w3.org/2000/svg">
<path d="M13 8.98926V13.9893C13 14.2545 12.8946 14.5088 12.7071 14.6964C12.5196 14.8839 12.2652 14.9893 12 14.9893C11.7348 14.9893 11.4804 14.8839 11.2929 14.6964C11.1054 14.5088 11 14.2545 11 13.9893V8.98926C11 8.72404 11.1054 8.46969 11.2929 8.28215C11.4804 8.09461 11.7348 7.98926 12 7.98926C12.2652 7.98926 12.5196 8.09461 12.7071 8.28215C12.8946 8.46969 13 8.72404 13 8.98926ZM11.29 16.2793C11.3834 16.1866 11.4943 16.1133 11.6161 16.0635C11.7379 16.0137 11.8684 15.9885 12 15.9893C11.8684 15.9885 11.7379 16.0137 11.6161 16.0635C11.4943 16.1133 11.3834 16.1866 11.29 16.2793ZM11 16.9893C10.9992 16.8577 11.0245 16.7272 11.0742 16.6054C11.124 16.4835 11.1973 16.3727 11.29 16.2793C11.1973 16.3727 11.124 16.4835 11.0742 16.6054C11.0245 16.7272 10.9992 16.8577 11 16.9893ZM12 15.9893C11.8022 15.9893 11.6089 16.0479 11.4444 16.1578C11.28 16.2677 11.1518 16.4238 11.0761 16.6066C11.0004 16.7893 10.9806 16.9904 11.0192 17.1843C11.0578 17.3783 11.153 17.5565 11.2929 17.6964C11.4328 17.8362 11.6109 17.9315 11.8049 17.97C11.9989 18.0086 12.2 17.9888 12.3827 17.9131C12.5654 17.8375 12.7216 17.7093 12.8315 17.5448C12.9414 17.3804 13 17.187 13 16.9893C13 16.724 12.8946 16.4697 12.7071 16.2822C12.5196 16.0946 12.2652 15.9893 12 15.9893ZM22 12.9893C22 14.9671 21.4135 16.9005 20.3147 18.545C19.2159 20.1895 17.6541 21.4712 15.8268 22.2281C13.9996 22.9849 11.9889 23.183 10.0491 22.7971C8.10929 22.4113 6.32746 21.4589 4.92894 20.0603C3.53041 18.6618 2.578 16.88 2.19215 14.9402C1.8063 13.0004 2.00433 10.9897 2.76121 9.16242C3.51809 7.33516 4.79981 5.77338 6.4443 4.67456C8.08879 3.57575 10.0222 2.98926 12 2.98926C13.3132 2.98926 14.6136 3.24792 15.8268 3.75046C17.0401 4.25301 18.1425 4.9896 19.0711 5.91819C19.9997 6.84678 20.7363 7.94917 21.2388 9.16242C21.7413 10.3757 22 11.676 22 12.9893ZM20 12.9893C20 11.407 19.5308 9.86029 18.6518 8.5447C17.7727 7.2291 16.5233 6.20372 15.0615 5.59822C13.5997 4.99272 11.9911 4.83429 10.4393 5.14298C8.88743 5.45166 7.46197 6.21358 6.34315 7.3324C5.22433 8.45122 4.4624 9.87669 4.15372 11.4285C3.84504 12.9804 4.00347 14.5889 4.60897 16.0507C5.21447 17.5125 6.23985 18.762 7.55544 19.641C8.87104 20.5201 10.4178 20.9893 12 20.9893C14.1217 20.9893 16.1566 20.1464 17.6569 18.6461C19.1572 17.1458 20 15.111 20 12.9893Z" fill="#808088"/>
</svg>
