<svg width="25" height="24" viewBox="0 0 25 24" fill="none" xmlns="http://www.w3.org/2000/svg">
<path d="M21 10V10.5H21.5H22.5C22.6326 10.5 22.7598 10.5527 22.8536 10.6464C22.9473 10.7402 23 10.8674 23 11C23 11.1326 22.9473 11.2598 22.8536 11.3536C22.7598 11.4473 22.6326 11.5 22.5 11.5H21.5H21V12V13C21 13.1326 20.9473 13.2598 20.8536 13.3536C20.7598 13.4473 20.6326 13.5 20.5 13.5C20.3674 13.5 20.2402 13.4473 20.1464 13.3536C20.0527 13.2598 20 13.1326 20 13V12V11.5H19.5H18.5C18.3674 11.5 18.2402 11.4473 18.1464 11.3536C18.0527 11.2598 18 11.1326 18 11C18 10.8674 18.0527 10.7402 18.1464 10.6464C18.2402 10.5527 18.3674 10.5 18.5 10.5H19.5H20V10V9C20 8.86739 20.0527 8.74021 20.1464 8.64645C20.2402 8.55268 20.3674 8.5 20.5 8.5C20.6326 8.5 20.7598 8.55268 20.8536 8.64645C20.9473 8.74021 21 8.86739 21 9V10ZM16.5 14.5C17.6935 14.5 18.8381 14.9741 19.682 15.818C20.5259 16.6619 21 17.8065 21 19V20C21 20.3978 20.842 20.7794 20.5607 21.0607C20.2794 21.342 19.8978 21.5 19.5 21.5H5.5C5.10218 21.5 4.72064 21.342 4.43934 21.0607C4.15804 20.7794 4 20.3978 4 20V19C4 17.8065 4.47411 16.6619 5.31802 15.818C6.16193 14.9741 7.30653 14.5 8.5 14.5H16.5ZM12.5 2.5C13.6935 2.5 14.8381 2.97411 15.682 3.81802C16.5259 4.66193 17 5.80653 17 7C17 8.19347 16.5259 9.33807 15.682 10.182C14.8381 11.0259 13.6935 11.5 12.5 11.5C11.3065 11.5 10.1619 11.0259 9.31802 10.182C8.47411 9.33807 8 8.19347 8 7C8 5.80653 8.47411 4.66193 9.31802 3.81802C10.1619 2.97411 11.3065 2.5 12.5 2.5Z" stroke="white"/>
</svg>
