<svg width="24" height="25" viewBox="0 0 24 25" fill="none" xmlns="http://www.w3.org/2000/svg">
<path d="M12 14.9893C12.1978 14.9893 12.3911 14.9306 12.5556 14.8207C12.72 14.7108 12.8482 14.5547 12.9239 14.3719C12.9996 14.1892 13.0194 13.9881 12.9808 13.7942C12.9422 13.6002 12.847 13.422 12.7071 13.2822C12.5673 13.1423 12.3891 13.0471 12.1951 13.0085C12.0011 12.9699 11.8 12.9897 11.6173 13.0654C11.4346 13.1411 11.2784 13.2692 11.1685 13.4337C11.0586 13.5981 11 13.7915 11 13.9893C11 14.2545 11.1054 14.5088 11.2929 14.6964C11.4804 14.8839 11.7348 14.9893 12 14.9893ZM17 14.9893C17.1978 14.9893 17.3911 14.9306 17.5556 14.8207C17.72 14.7108 17.8482 14.5547 17.9239 14.3719C17.9996 14.1892 18.0194 13.9881 17.9808 13.7942C17.9422 13.6002 17.847 13.422 17.7071 13.2822C17.5673 13.1423 17.3891 13.0471 17.1951 13.0085C17.0011 12.9699 16.8 12.9897 16.6173 13.0654C16.4346 13.1411 16.2784 13.2692 16.1685 13.4337C16.0586 13.5981 16 13.7915 16 13.9893C16 14.2545 16.1054 14.5088 16.2929 14.6964C16.4804 14.8839 16.7348 14.9893 17 14.9893ZM12 18.9893C12.1978 18.9893 12.3911 18.9306 12.5556 18.8207C12.72 18.7108 12.8482 18.5547 12.9239 18.3719C12.9996 18.1892 13.0194 17.9881 12.9808 17.7942C12.9422 17.6002 12.847 17.422 12.7071 17.2822C12.5673 17.1423 12.3891 17.0471 12.1951 17.0085C12.0011 16.9699 11.8 16.9897 11.6173 17.0654C11.4346 17.1411 11.2784 17.2692 11.1685 17.4337C11.0586 17.5981 11 17.7915 11 17.9893C11 18.2545 11.1054 18.5088 11.2929 18.6964C11.4804 18.8839 11.7348 18.9893 12 18.9893ZM17 18.9893C17.1978 18.9893 17.3911 18.9306 17.5556 18.8207C17.72 18.7108 17.8482 18.5547 17.9239 18.3719C17.9996 18.1892 18.0194 17.9881 17.9808 17.7942C17.9422 17.6002 17.847 17.422 17.7071 17.2822C17.5673 17.1423 17.3891 17.0471 17.1951 17.0085C17.0011 16.9699 16.8 16.9897 16.6173 17.0654C16.4346 17.1411 16.2784 17.2692 16.1685 17.4337C16.0586 17.5981 16 17.7915 16 17.9893C16 18.2545 16.1054 18.5088 16.2929 18.6964C16.4804 18.8839 16.7348 18.9893 17 18.9893ZM7 14.9893C7.19778 14.9893 7.39112 14.9306 7.55557 14.8207C7.72002 14.7108 7.84819 14.5547 7.92388 14.3719C7.99957 14.1892 8.01937 13.9881 7.98079 13.7942C7.9422 13.6002 7.84696 13.422 7.70711 13.2822C7.56725 13.1423 7.38907 13.0471 7.19509 13.0085C7.00111 12.9699 6.80004 12.9897 6.61732 13.0654C6.43459 13.1411 6.27841 13.2692 6.16853 13.4337C6.05865 13.5981 6 13.7915 6 13.9893C6 14.2545 6.10536 14.5088 6.29289 14.6964C6.48043 14.8839 6.73478 14.9893 7 14.9893ZM19 4.98926H18V3.98926C18 3.72404 17.8946 3.46969 17.7071 3.28215C17.5196 3.09461 17.2652 2.98926 17 2.98926C16.7348 2.98926 16.4804 3.09461 16.2929 3.28215C16.1054 3.46969 16 3.72404 16 3.98926V4.98926H8V3.98926C8 3.72404 7.89464 3.46969 7.70711 3.28215C7.51957 3.09461 7.26522 2.98926 7 2.98926C6.73478 2.98926 6.48043 3.09461 6.29289 3.28215C6.10536 3.46969 6 3.72404 6 3.98926V4.98926H5C4.20435 4.98926 3.44129 5.30533 2.87868 5.86794C2.31607 6.43055 2 7.19361 2 7.98926V19.9893C2 20.7849 2.31607 21.548 2.87868 22.1106C3.44129 22.6732 4.20435 22.9893 5 22.9893H19C19.7956 22.9893 20.5587 22.6732 21.1213 22.1106C21.6839 21.548 22 20.7849 22 19.9893V7.98926C22 7.19361 21.6839 6.43055 21.1213 5.86794C20.5587 5.30533 19.7956 4.98926 19 4.98926ZM20 19.9893C20 20.2545 19.8946 20.5088 19.7071 20.6964C19.5196 20.8839 19.2652 20.9893 19 20.9893H5C4.73478 20.9893 4.48043 20.8839 4.29289 20.6964C4.10536 20.5088 4 20.2545 4 19.9893V10.9893H20V19.9893ZM20 8.98926H4V7.98926C4 7.72404 4.10536 7.46969 4.29289 7.28215C4.48043 7.09461 4.73478 6.98926 5 6.98926H19C19.2652 6.98926 19.5196 7.09461 19.7071 7.28215C19.8946 7.46969 20 7.72404 20 7.98926V8.98926ZM7 18.9893C7.19778 18.9893 7.39112 18.9306 7.55557 18.8207C7.72002 18.7108 7.84819 18.5547 7.92388 18.3719C7.99957 18.1892 8.01937 17.9881 7.98079 17.7942C7.9422 17.6002 7.84696 17.422 7.70711 17.2822C7.56725 17.1423 7.38907 17.0471 7.19509 17.0085C7.00111 16.9699 6.80004 16.9897 6.61732 17.0654C6.43459 17.1411 6.27841 17.2692 6.16853 17.4337C6.05865 17.5981 6 17.7915 6 17.9893C6 18.2545 6.10536 18.5088 6.29289 18.6964C6.48043 18.8839 6.73478 18.9893 7 18.9893Z" fill="#808088"/>
</svg>
