<svg width="20" height="20" viewBox="0 0 20 20" fill="none" xmlns="http://www.w3.org/2000/svg">
<path d="M9.16683 17.4998H5.8335V15.8332H9.16683V17.4998ZM12.9168 15.8332H14.1668V17.4998H10.8335V15.8332H11.0002L9.8335 10.7498L7.75016 11.2498C7.66683 11.6665 7.50016 11.9998 7.3335 12.3332C6.5835 13.5832 5.00016 13.9165 3.75016 13.1665C2.50016 12.4165 2.16683 10.8332 2.91683 9.58315C3.66683 8.33315 5.25016 7.99982 6.50016 8.74982C6.8335 8.91648 7.0835 9.24982 7.25016 9.49982L9.3335 8.99982L8.8335 6.91648C8.50016 6.83315 8.16683 6.66648 7.8335 6.49982C6.66683 5.74982 6.25016 4.16648 7.00016 2.91648C7.75016 1.66648 9.3335 1.33315 10.5835 2.08315C11.8335 2.83315 12.1668 4.41648 11.4168 5.66648C11.2502 5.99982 10.9168 6.24982 10.6668 6.41648L12.9168 15.8332ZM5.8335 9.83315C5.25016 9.41648 4.41683 9.66648 4.00016 10.2498C3.5835 10.8332 3.8335 11.6665 4.41683 11.9998C5.00016 12.4165 5.8335 12.2498 6.25016 11.5832C6.5835 10.9998 6.41683 10.1665 5.8335 9.83315ZM10.3335 4.99982C10.7502 4.41648 10.5002 3.58315 9.91683 3.16648C9.3335 2.74982 8.50016 2.99982 8.0835 3.58315C7.75016 4.16648 7.91683 4.99982 8.5835 5.41648C9.16683 5.74982 10.0002 5.58315 10.3335 4.99982ZM10.6668 9.41648C10.5002 9.33315 10.3335 9.33315 10.2502 9.49982C10.1668 9.66648 10.1668 9.83315 10.3335 9.91648C10.5002 9.99982 10.6668 9.99982 10.7502 9.83315C10.9168 9.66648 10.8335 9.49982 10.6668 9.41648ZM17.5002 7.08315L12.0835 8.33315L12.5002 10.1665L18.7502 8.66648L19.1668 8.08315L17.5002 7.08315ZM19.1668 15.8332H15.8335V17.4998H19.1668V15.8332ZM4.16683 15.8332H0.833496V17.4998H4.16683V15.8332Z" fill="#808088"/>
</svg>
