<svg width="36" height="36" viewBox="0 0 36 36" fill="none" xmlns="http://www.w3.org/2000/svg">
<rect x="0.5" y="0.5" width="35" height="35" rx="5.5" fill="white"/>
<rect x="0.5" y="0.5" width="35" height="35" rx="5.5" stroke="#F64848"/>
<path d="M16 24C16.2652 24 16.5196 23.8946 16.7071 23.7071C16.8946 23.5196 17 23.2652 17 23V17C17 16.7348 16.8946 16.4804 16.7071 16.2929C16.5196 16.1054 16.2652 16 16 16C15.7348 16 15.4804 16.1054 15.2929 16.2929C15.1054 16.4804 15 16.7348 15 17V23C15 23.2652 15.1054 23.5196 15.2929 23.7071C15.4804 23.8946 15.7348 24 16 24ZM26 12H22V11C22 10.2044 21.6839 9.44129 21.1213 8.87868C20.5587 8.31607 19.7956 8 19 8H17C16.2044 8 15.4413 8.31607 14.8787 8.87868C14.3161 9.44129 14 10.2044 14 11V12H10C9.73478 12 9.48043 12.1054 9.29289 12.2929C9.10536 12.4804 9 12.7348 9 13C9 13.2652 9.10536 13.5196 9.29289 13.7071C9.48043 13.8946 9.73478 14 10 14H11V25C11 25.7956 11.3161 26.5587 11.8787 27.1213C12.4413 27.6839 13.2044 28 14 28H22C22.7956 28 23.5587 27.6839 24.1213 27.1213C24.6839 26.5587 25 25.7956 25 25V14H26C26.2652 14 26.5196 13.8946 26.7071 13.7071C26.8946 13.5196 27 13.2652 27 13C27 12.7348 26.8946 12.4804 26.7071 12.2929C26.5196 12.1054 26.2652 12 26 12ZM16 11C16 10.7348 16.1054 10.4804 16.2929 10.2929C16.4804 10.1054 16.7348 10 17 10H19C19.2652 10 19.5196 10.1054 19.7071 10.2929C19.8946 10.4804 20 10.7348 20 11V12H16V11ZM23 25C23 25.2652 22.8946 25.5196 22.7071 25.7071C22.5196 25.8946 22.2652 26 22 26H14C13.7348 26 13.4804 25.8946 13.2929 25.7071C13.1054 25.5196 13 25.2652 13 25V14H23V25ZM20 24C20.2652 24 20.5196 23.8946 20.7071 23.7071C20.8946 23.5196 21 23.2652 21 23V17C21 16.7348 20.8946 16.4804 20.7071 16.2929C20.5196 16.1054 20.2652 16 20 16C19.7348 16 19.4804 16.1054 19.2929 16.2929C19.1054 16.4804 19 16.7348 19 17V23C19 23.2652 19.1054 23.5196 19.2929 23.7071C19.4804 23.8946 19.7348 24 20 24Z" fill="#F64848"/>
</svg>
