<svg width="24" height="24" viewBox="0 0 24 24" fill="none" xmlns="http://www.w3.org/2000/svg">
<path d="M17.9282 19.6339H20.0662C20.2542 19.6368 20.4402 19.5942 20.6082 19.5096C20.7762 19.425 20.9213 19.3011 21.0309 19.1483C21.1406 18.9955 21.2116 18.8184 21.238 18.6321C21.2643 18.4459 21.2452 18.2561 21.1822 18.0789C20.637 16.912 19.774 15.9224 18.692 15.2238C17.61 14.5251 16.353 14.1456 15.0652 14.1289M15.0652 11.3699C15.5464 11.37 16.023 11.2753 16.4676 11.0912C16.9123 10.9072 17.3163 10.6373 17.6567 10.297C17.997 9.9568 18.267 9.55284 18.4512 9.10823C18.6354 8.66363 18.7302 8.1871 18.7302 7.70585C18.7315 7.22376 18.6377 6.74615 18.4541 6.3004C18.2705 5.85464 18.0007 5.4495 17.6602 5.10819C17.3197 4.76688 16.9153 4.49612 16.47 4.31142C16.0247 4.12672 15.5473 4.03172 15.0652 4.03185M9.34018 11.4849C10.4419 11.4822 11.4976 11.0426 12.2756 10.2625C13.0537 9.48245 13.4905 8.4256 13.4902 7.32385C13.4902 6.22294 13.0528 5.16711 12.2744 4.38865C11.4959 3.61019 10.4401 3.17285 9.33918 3.17285C8.23827 3.17285 7.18245 3.61019 6.40398 4.38865C5.62552 5.16711 5.18818 6.22294 5.18818 7.32385C5.18818 8.42559 5.62523 9.48234 6.40344 10.2622C7.18164 11.0421 8.23744 11.4815 9.33918 11.4839M14.0252 20.8269C14.3774 20.8264 14.7227 20.7284 15.0226 20.5438C15.3226 20.3592 15.5656 20.0951 15.7248 19.7809C15.8839 19.4666 15.9529 19.1145 15.9243 18.7634C15.8956 18.4123 15.7702 18.0761 15.5622 17.7919C14.8333 16.8243 13.895 16.0342 12.8175 15.4808C11.74 14.9273 10.5512 14.6248 9.34018 14.5959C8.1291 14.6249 6.94028 14.9276 5.86276 15.4812C4.78524 16.0349 3.84696 16.8251 3.11818 17.7929C2.91084 18.0771 2.78608 18.4131 2.75769 18.7638C2.7293 19.1145 2.79838 19.4662 2.95729 19.7801C3.11621 20.094 3.35878 20.3579 3.65823 20.5426C3.95768 20.7273 4.30235 20.8257 4.65418 20.8269H14.0252Z" stroke="black" stroke-width="1.5" stroke-linecap="round" stroke-linejoin="round"/>
</svg>
