<svg width="6" height="10" viewBox="0 0 6 10" fill="none" xmlns="http://www.w3.org/2000/svg">
<path d="M1.71019 0.289816L5.71019 4.28981C5.80391 4.38278 5.87831 4.49338 5.92908 4.61524C5.97985 4.7371 6.00598 4.8678 6.00598 4.99981C6.00598 5.13183 5.97985 5.26253 5.92908 5.38439C5.87831 5.50625 5.80391 5.61685 5.71019 5.70981L1.71019 9.70981C1.61695 9.80305 1.50626 9.87701 1.38443 9.92747C1.26261 9.97793 1.13204 10.0039 1.00019 10.0039C0.868326 10.0039 0.737757 9.97793 0.615935 9.92747C0.494113 9.87701 0.383424 9.80305 0.290185 9.70981C0.196946 9.61658 0.122985 9.50589 0.072525 9.38406C0.0220647 9.26224 -0.00390625 9.13167 -0.00390625 8.99981C-0.00390625 8.86796 0.0220647 8.73739 0.072525 8.61556C0.122985 8.49374 0.196946 8.38305 0.290185 8.28981L3.59019 4.99981L0.290185 1.70981C0.101881 1.52151 -0.00390625 1.26612 -0.00390625 0.999815C-0.00390625 0.733513 0.101881 0.47812 0.290185 0.289816C0.478489 0.101512 0.733883 -0.00427628 1.00019 -0.00427628C1.26649 -0.00427628 1.52188 0.101512 1.71019 0.289816Z" fill="#555555"/>
</svg>
