<svg width="24" height="24" viewBox="0 0 24 24" fill="none" xmlns="http://www.w3.org/2000/svg">
<path d="M12.0001 1.71436C17.6808 1.71436 22.2858 6.31936 22.2858 12.0001C22.2858 17.6808 17.6808 22.2858 12.0001 22.2858C6.31936 22.2858 1.71436 17.6808 1.71436 12.0001C1.71436 6.31936 6.31936 1.71436 12.0001 1.71436ZM12.0001 3.42864C7.26607 3.42864 3.42864 7.26607 3.42864 12.0001C3.42864 16.7341 7.26607 20.5715 12.0001 20.5715C16.7341 20.5715 20.5715 16.7341 20.5715 12.0001C20.5715 7.26607 16.7341 3.42864 12.0001 3.42864ZM12.2456 6.12264V7.27421C13.9496 7.41093 15.1835 8.43307 15.2379 9.98021H13.8202C13.7315 9.12136 13.1182 8.62378 12.2456 8.51493V11.3572L12.5731 11.4386C14.3658 11.8548 15.3472 12.5911 15.3472 14.0426C15.3472 15.7128 13.9839 16.6599 12.2456 16.7829V17.9276H11.4755V16.7829C9.74407 16.6531 8.37436 15.6785 8.32678 14.0426H9.73764C9.86021 14.8402 10.3784 15.4265 11.4755 15.5426V12.5701L11.1961 12.5015C9.46464 12.0999 8.53121 11.3229 8.53121 9.93907C8.53121 8.41207 9.75778 7.40364 11.4755 7.27378V6.12221L12.2456 6.12264ZM12.2456 12.7475V15.5491C13.4114 15.4604 13.9021 14.9084 13.9021 14.1789C13.9021 13.4769 13.5206 13.0612 12.2456 12.7475ZM11.4755 8.51493C10.4941 8.6375 9.97593 9.20321 9.97593 9.82378C9.97593 10.4444 10.3852 10.9004 11.4759 11.1734L11.4755 8.51493Z" fill="black"/>
</svg>
