<svg width="24" height="24" viewBox="0 0 24 24" fill="none" xmlns="http://www.w3.org/2000/svg">
<path d="M4.94618 12.4058L5.61161 5.81363L5.69492 4.9883L4.8654 4.98831L4.71395 4.98831L4.36277 4.98831L4.13789 5.25804L2.50836 7.21259L1.93666 6.83339L3.69253 2.75672L5.78603 2.23662C6.08782 2.3915 6.40499 2.48736 6.69962 2.55721L6.70185 2.55773C7.23613 2.68267 7.82167 2.73755 8.39295 2.73755C8.96423 2.73755 9.54978 2.68267 10.0841 2.55774L10.0863 2.55721C10.3815 2.48722 10.6983 2.39106 10.9996 2.23657L13.0929 2.75671L14.8162 6.75673L14.1894 7.06845L12.6319 5.25038L12.4074 4.98831L12.0623 4.98831L11.9205 4.98831L11.1579 4.9883L11.1706 5.75085L11.2145 8.37626L11.1751 8.72878L11.1751 8.72878L11.1746 8.73356L10.7882 12.4058H4.94618ZM22.1666 22.6846H20.4904L18.3077 12.558L18.1801 11.966H17.5745H16.7001H16.0945L15.9669 12.558L13.7842 22.6846H12.1081L13.2761 11.6326H20.9985L22.1666 22.6846Z" stroke="black" stroke-width="1.5"/>
</svg>
