<svg width="24" height="25" viewBox="0 0 24 25" fill="none" xmlns="http://www.w3.org/2000/svg">
<path d="M18 14.1693V10.9893C17.9986 9.57238 17.4958 8.20173 16.5806 7.12003C15.6655 6.03834 14.3971 5.3154 13 5.07926V3.98926C13 3.72404 12.8946 3.46969 12.7071 3.28215C12.5196 3.09461 12.2652 2.98926 12 2.98926C11.7348 2.98926 11.4804 3.09461 11.2929 3.28215C11.1054 3.46969 11 3.72404 11 3.98926V5.07926C9.60294 5.3154 8.33452 6.03834 7.41939 7.12003C6.50425 8.20173 6.00144 9.57238 6 10.9893V14.1693C5.41645 14.3756 4.911 14.7573 4.55294 15.2622C4.19488 15.7671 4.00174 16.3703 4 16.9893V18.9893C4 19.2545 4.10536 19.5088 4.29289 19.6964C4.48043 19.8839 4.73478 19.9893 5 19.9893H8.14C8.37028 20.8366 8.873 21.5847 9.5706 22.118C10.2682 22.6513 11.1219 22.9403 12 22.9403C12.8781 22.9403 13.7318 22.6513 14.4294 22.118C15.127 21.5847 15.6297 20.8366 15.86 19.9893H19C19.2652 19.9893 19.5196 19.8839 19.7071 19.6964C19.8946 19.5088 20 19.2545 20 18.9893V16.9893C19.9983 16.3703 19.8051 15.7671 19.4471 15.2622C19.089 14.7573 18.5835 14.3756 18 14.1693ZM8 10.9893C8 9.92839 8.42143 8.91098 9.17157 8.16083C9.92172 7.41069 10.9391 6.98926 12 6.98926C13.0609 6.98926 14.0783 7.41069 14.8284 8.16083C15.5786 8.91098 16 9.92839 16 10.9893V13.9893H8V10.9893ZM12 20.9893C11.651 20.9872 11.3086 20.8937 11.0068 20.7183C10.7051 20.5429 10.4545 20.2915 10.28 19.9893H13.72C13.5455 20.2915 13.2949 20.5429 12.9932 20.7183C12.6914 20.8937 12.349 20.9872 12 20.9893ZM18 17.9893H6V16.9893C6 16.724 6.10536 16.4697 6.29289 16.2822C6.48043 16.0946 6.73478 15.9893 7 15.9893H17C17.2652 15.9893 17.5196 16.0946 17.7071 16.2822C17.8946 16.4697 18 16.724 18 16.9893V17.9893Z" fill="#808088"/>
</svg>
