<svg width="24" height="24" viewBox="0 0 24 24" fill="none" xmlns="http://www.w3.org/2000/svg">
<path d="M18.8 5.75H19.9723C20.17 6.03433 20.25 6.25525 20.25 6.5V12.349C19.8404 12.2824 19.4178 12.25 19 12.25C16.1847 12.25 13.7591 13.9942 12.75 16.456V15V14.25H12H6H5.25V15V18V18.75H6H12H12.2546C12.2515 18.833 12.25 18.9163 12.25 19C12.25 19.4178 12.2824 19.8404 12.349 20.25H5C4.31421 20.25 3.75 19.6858 3.75 19V6.5C3.75 6.25525 3.83004 6.03433 4.02766 5.75H5.1H18.8ZM18.2303 19.9303L21.28 16.8807L21.5586 17.1807L17.8186 20.9207L16.0216 18.9954L16.1236 18.8842L17.1697 19.9303L17.7 20.4607L18.2303 19.9303Z" stroke="black" stroke-width="1.5"/>
</svg>
