<svg width="20" height="20" viewBox="0 0 20 20" fill="none" xmlns="http://www.w3.org/2000/svg">
<path fill-rule="evenodd" clip-rule="evenodd" d="M1.81005 3.69967C1.88633 3.58682 1.98912 3.49438 2.10941 3.43046C2.2297 3.36653 2.36383 3.33307 2.50005 3.33301H11.6667C11.8332 3.33311 11.9959 3.3831 12.1337 3.47653C12.2716 3.56996 12.3783 3.70254 12.4401 3.85717L13.0659 5.42051L13.3492 4.00301C13.387 3.81403 13.4891 3.64398 13.6382 3.52182C13.7872 3.39965 13.974 3.33293 14.1667 3.33301H17.5001C17.6233 3.33308 17.745 3.36049 17.8564 3.41326C17.9677 3.46603 18.066 3.54285 18.1441 3.63817C18.2222 3.7335 18.2782 3.84497 18.3081 3.96454C18.3379 4.08412 18.3409 4.20882 18.3167 4.32967L17.5001 8.41634V14.9997C17.5001 15.4417 17.3245 15.8656 17.0119 16.1782C16.6993 16.4907 16.2754 16.6663 15.8334 16.6663H5.00005C4.55802 16.6663 4.1341 16.4907 3.82154 16.1782C3.50898 15.8656 3.33338 15.4417 3.33338 14.9997V8.49384L1.72672 4.47467C1.67609 4.34826 1.65722 4.21137 1.67175 4.07597C1.68628 3.94058 1.73376 3.8108 1.81005 3.69801V3.69967ZM5.00005 9.16634V14.9997H12.5001V9.16634H5.00005ZM14.1667 9.16634V14.9997H15.8334V9.16634H14.1667ZM15.9834 7.49967L16.4834 4.99967H14.8501L14.3501 7.49967H15.9834ZM12.1026 7.49967L11.1026 4.99967H3.73088L4.73088 7.49967H12.1026ZM9.16672 13.333C9.16672 13.112 9.25452 12.9 9.4108 12.7438C9.56708 12.5875 9.77904 12.4997 10.0001 12.4997H10.8334C11.0544 12.4997 11.2664 12.5875 11.4226 12.7438C11.5789 12.9 11.6667 13.112 11.6667 13.333C11.6667 13.554 11.5789 13.766 11.4226 13.9223C11.2664 14.0785 11.0544 14.1663 10.8334 14.1663H10.0001C9.77904 14.1663 9.56708 14.0785 9.4108 13.9223C9.25452 13.766 9.16672 13.554 9.16672 13.333Z" fill="#808088"/>
</svg>
