<svg width="24" height="24" viewBox="0 0 24 24" fill="none" xmlns="http://www.w3.org/2000/svg">
<path d="M2 11.9998C2 11.1348 2.11 10.2958 2.316 9.49584C2.86847 9.52488 3.4182 9.40059 3.90444 9.13671C4.39068 8.87283 4.79448 8.47963 5.07121 8.00058C5.34793 7.52154 5.48681 6.9753 5.47247 6.42226C5.45814 5.86922 5.29117 5.33091 4.99 4.86684C6.1991 3.6774 7.69086 2.81503 9.325 2.36084C9.57599 2.85431 9.95864 3.26871 10.4306 3.55815C10.9025 3.84759 11.4454 4.00079 11.999 4.00079C12.5526 4.00079 13.0955 3.84759 13.5674 3.55815C14.0394 3.26871 14.422 2.85431 14.673 2.36084C16.3071 2.81503 17.7989 3.6774 19.008 4.86684C18.7065 5.33099 18.5393 5.86951 18.5248 6.4228C18.5104 6.9761 18.6493 7.5226 18.9262 8.00185C19.2031 8.4811 19.6071 8.87441 20.0937 9.13826C20.5802 9.4021 21.1303 9.52621 21.683 9.49684C21.889 10.2968 21.999 11.1348 21.999 11.9998C21.999 12.8638 21.889 13.7028 21.683 14.5028C21.1303 14.4735 20.5802 14.5976 20.0937 14.8614C19.6071 15.1253 19.2031 15.5186 18.9262 15.9978C18.6493 16.4771 18.5104 17.0236 18.5248 17.5769C18.5393 18.1302 18.7065 18.6687 19.008 19.1328C17.7988 20.3219 16.307 21.1839 14.673 21.6378C14.422 21.1444 14.0394 20.73 13.5674 20.4405C13.0955 20.1511 12.5526 19.9979 11.999 19.9979C11.4454 19.9979 10.9025 20.1511 10.4306 20.4405C9.95864 20.73 9.57599 21.1444 9.325 21.6378C7.69096 21.1839 6.19921 20.3219 4.99 19.1328C5.29151 18.6687 5.45873 18.1302 5.47317 17.5769C5.48761 17.0236 5.3487 16.4771 5.07181 15.9978C4.79492 15.5186 4.39085 15.1253 3.90431 14.8614C3.41776 14.5976 2.8677 14.4735 2.315 14.5028C2.11 13.7028 2 12.8638 2 11.9998ZM6.804 14.9998C7.434 16.0908 7.614 17.3458 7.368 18.5238C7.77667 18.8145 8.209 19.0645 8.665 19.2738C9.58202 18.4532 10.7694 17.9996 12 17.9998C13.26 17.9998 14.438 18.4708 15.335 19.2738C15.791 19.0645 16.2233 18.8145 16.632 18.5238C16.3801 17.3198 16.5809 16.0651 17.196 14.9998C17.8111 13.9346 18.7973 13.1336 19.966 12.7498C20.013 12.2509 20.013 11.7487 19.966 11.2498C18.7973 10.8661 17.8111 10.065 17.196 8.99984C16.5809 7.93455 16.3801 6.67989 16.632 5.47584C16.2241 5.18582 15.7898 4.93472 15.335 4.72584C14.418 5.54643 13.2306 6.00004 12 5.99984C10.7694 6.00004 9.58202 5.54643 8.665 4.72584C8.21016 4.93472 7.77592 5.18582 7.368 5.47584C7.61989 6.67989 7.41909 7.93455 6.804 8.99984C6.18886 10.065 5.20266 10.8661 4.034 11.2498C3.98702 11.7487 3.98702 12.2509 4.034 12.7498C5.20303 13.1334 6.18862 13.9345 6.804 14.9998ZM12 14.9998C11.2044 14.9998 10.4413 14.6838 9.87868 14.1212C9.31607 13.5586 9 12.7955 9 11.9998C9 11.2042 9.31607 10.4411 9.87868 9.87852C10.4413 9.31591 11.2044 8.99984 12 8.99984C12.7956 8.99984 13.5587 9.31591 14.1213 9.87852C14.6839 10.4411 15 11.2042 15 11.9998C15 12.7955 14.6839 13.5586 14.1213 14.1212C13.5587 14.6838 12.7956 14.9998 12 14.9998ZM12 12.9998C12.2652 12.9998 12.5196 12.8945 12.7071 12.7069C12.8946 12.5194 13 12.2651 13 11.9998C13 11.7346 12.8946 11.4803 12.7071 11.2927C12.5196 11.1052 12.2652 10.9998 12 10.9998C11.7348 10.9998 11.4804 11.1052 11.2929 11.2927C11.1054 11.4803 11 11.7346 11 11.9998C11 12.2651 11.1054 12.5194 11.2929 12.7069C11.4804 12.8945 11.7348 12.9998 12 12.9998Z" fill="black"/>
</svg>
