<svg width="20" height="20" viewBox="0 0 20 20" fill="none" xmlns="http://www.w3.org/2000/svg">
<g clip-path="url(#clip0_4_6351)">
<path d="M2.21938 0.719758C2.20102 0.719563 2.18274 0.720305 2.16442 0.72093C2.13997 0.721842 2.11555 0.723482 2.09118 0.725852C1.79946 0.753977 1.51766 0.887883 1.21969 1.16042C0.829655 1.51698 0.717233 1.85027 0.774108 2.24316C0.830944 2.63597 1.1004 3.11175 1.5993 3.60667C1.71239 3.71886 1.8386 3.83077 1.97403 3.94359C2.02364 3.9848 2.07423 4.02679 2.12665 4.06804C2.17104 4.10311 2.21581 4.13769 2.26094 4.17179C2.27001 4.17863 2.27868 4.18577 2.28782 4.19257C2.91848 4.66281 3.73286 5.12765 4.69739 5.55499C10.9366 11.8562 15.9792 17.1782 19.33 19.3098C17.3335 15.9651 12.0084 10.9262 5.65809 4.64066C5.25848 3.71089 4.83329 2.93323 4.40442 2.32495C5.78958 1.92691 7.62774 2.23534 9.31653 3.92417C10.8885 5.49613 11.3729 7.47011 10.9327 8.93757C11.1238 9.12952 11.3188 9.3248 11.5065 9.51374C12.2514 7.71296 11.6851 5.26003 9.8329 3.40777C8.4386 2.01351 6.88446 1.44198 5.49571 1.44605C5.4509 1.44624 5.40587 1.44722 5.36141 1.44855C4.50813 1.47394 3.72247 1.718 3.08235 2.11991C2.97042 2.19019 2.86206 2.26598 2.75766 2.34702C2.80962 2.46788 2.8654 2.57687 2.92977 2.66804C3.00477 2.77429 3.08618 2.86085 3.19954 2.92929C3.28555 2.86222 3.37524 2.79745 3.47055 2.73765C3.51232 2.7111 3.55465 2.68544 3.59751 2.6607C3.91766 3.05476 4.20161 3.62257 4.59243 4.5064C3.65856 4.09359 3.07594 3.80171 2.67708 3.45171C2.67801 3.45054 2.67864 3.44925 2.67958 3.44808C2.66266 3.43519 2.64571 3.42249 2.62958 3.40902C2.62911 3.40868 2.62868 3.40829 2.62829 3.40784C2.1902 3.00257 1.98251 2.51198 1.7568 1.66956C1.99071 1.73226 2.19649 1.79417 2.3818 1.85878C2.70617 1.61292 3.05753 1.40487 3.42907 1.23866C3.05798 0.936399 2.70438 0.772649 2.38665 0.732024C2.33028 0.724797 2.27454 0.720266 2.21938 0.719758ZM19.2689 2.51413C16.2226 2.51413 14.3631 3.64249 13.5609 5.22531C12.7587 6.80812 13.0143 8.75617 13.9393 10.3584C14.3841 11.1287 14.6349 11.9477 14.6888 12.7498C14.9301 12.9989 15.1706 13.2487 15.4103 13.4993C15.5006 12.3292 15.2122 11.1028 14.5716 9.99343C13.7463 8.56366 13.55 6.86406 14.2128 5.55616C14.8757 4.24827 16.398 3.24413 19.269 3.24413V2.51421L19.2689 2.51413ZM1.48087 4.48929C1.36782 5.42386 1.72227 6.45062 2.63446 7.36281L3.15079 6.84765C2.52696 6.22382 2.24501 5.60417 2.19622 5.02761C1.93661 4.85144 1.69801 4.67206 1.48083 4.48925L1.48087 4.48929ZM4.8463 10.8198C3.89059 10.8187 3.08692 11.012 2.45008 11.3533C1.47969 11.8732 0.912468 12.7543 0.858288 13.7154C0.749694 15.6375 2.59188 17.7251 6.34286 18.3357C10.3128 18.9819 12.9953 17.9769 14.3665 16.2239C14.4059 16.1736 14.4442 16.1227 14.4814 16.0713C14.3036 15.906 14.124 15.7385 13.943 15.5684C13.8948 15.6383 13.8445 15.7071 13.7916 15.7746C12.6209 17.2713 10.2621 18.2344 6.46008 17.6155C2.92907 17.0407 1.50712 15.173 1.58704 13.7568C1.627 13.0487 2.01602 12.4142 2.79555 11.9966C3.57505 11.5789 4.75911 11.3964 6.33071 11.7048C7.66184 11.9661 8.78923 11.8403 9.66809 11.4338C9.48372 11.2522 9.29739 11.0694 9.11028 10.8844C8.42493 11.1365 7.55208 11.2004 6.47106 10.9882C5.88923 10.874 5.34692 10.8203 4.8463 10.8198V10.8198Z" fill="#808088"/>
</g>
<defs>
<clipPath id="clip0_4_6351">
<rect width="20" height="20" fill="white"/>
</clipPath>
</defs>
</svg>
